<?xml version="1.0" encoding="UTF-8"?>
<svg width="302px" height="40px" viewBox="0 0 302 40" version="1.1" xmlns="http://www.w3.org/2000/svg" xmlns:xlink="http://www.w3.org/1999/xlink">
    <!-- Generator: Sketch 54.1 (76490) - https://sketchapp.com -->
    <title>Instagram</title>
    <desc>Created with Sketch.</desc>
    <g id="frontpage" stroke="none" stroke-width="1" fill="none" fill-rule="evenodd">
        <g id="Front-page_IG" transform="translate(-812.000000, -995.000000)" fill="#00A99D">
            <g id="Instagram" transform="translate(812.000000, 992.000000)">
                <path d="M19.967,6.608 C25.297,6.608 25.953,6.608 28.167,6.608 C29.4377328,6.62586817 30.6973835,6.84734522 31.898,7.264 C32.7668114,7.59226249 33.5512676,8.11056389 34.194,8.781 C34.8231903,9.473877 35.2859409,10.3012191 35.547,11.2 C36.0010128,12.3776028 36.2371851,13.6279265 36.244,14.89 C36.244,17.022 36.244,17.637 36.244,23.09 C36.244,28.543 36.244,29.076 36.244,31.29 C36.240332,32.5656896 36.0041376,33.8300245 35.547,35.021 C34.8943326,36.7646657 33.5186657,38.1403326 31.775,38.793 C30.5840245,39.2501376 29.3196896,39.486332 28.044,39.49 C25.953,39.49 25.297,39.49 19.844,39.49 C14.391,39.49 13.899,39.49 11.644,39.49 C10.4502703,39.3762928 9.28514677,39.0572709 8.2,38.547 C7.33376972,38.2331908 6.5491134,37.7287688 5.904,37.071 C5.23356389,36.4282676 4.71526249,35.6438114 4.387,34.775 C3.97034522,33.5743835 3.74886817,32.3147328 3.731,31.044 C3.731,28.953 3.731,28.297 3.731,22.844 C3.731,17.391 3.731,16.899 3.731,14.644 C3.77707226,13.4697528 3.99817545,12.3089611 4.387,11.2 C4.71526249,10.3311886 5.23356389,9.54673241 5.904,8.904 C6.54673241,8.23356389 7.33118859,7.71526249 8.2,7.387 C9.38723264,6.97328206 10.63292,6.75182653 11.89,6.731 C14.022,6.731 14.637,6.731 20.09,6.731 L19.967,6.608 Z M20.09,3.123 C14.678,3.123 13.981,3.123 11.89,3.123 C10.1798799,3.13762512 8.48605683,3.45695243 6.888,4.066 C5.55600778,4.55852279 4.35120114,5.34304804 3.362,6.362 C2.34304804,7.35120114 1.55852279,8.55600778 1.066,9.888 C0.433673981,11.4269211 0.0729975813,13.0638371 0,14.726 C0,16.858 0,17.555 0,22.926 C0,28.297 0,29.035 0,31.126 C0.0604108162,32.8295393 0.421289404,34.5090127 1.066,36.087 C1.55852279,37.4189922 2.34304804,38.6237989 3.362,39.613 C4.35120114,40.631952 5.55600778,41.4164772 6.888,41.909 C8.44003442,42.4794122 10.0733536,42.797771 11.726,42.852 C13.858,42.852 14.555,42.852 19.926,42.852 C25.297,42.852 26.035,42.852 28.126,42.852 C29.7923896,42.8014323 31.4397835,42.4830285 33.005,41.909 C35.7108301,40.8953616 37.8576188,38.7783894 38.909,36.087 C39.4830285,34.5217835 39.8014323,32.8743896 39.852,31.208 C39.852,29.076 39.852,28.42 39.852,23.008 C39.852,17.596 39.852,16.899 39.852,14.808 C39.797771,13.1553536 39.4794122,11.5220344 38.909,9.97 C38.4274524,8.60864672 37.6422763,7.37479864 36.613,6.362 C35.6237989,5.34304804 34.4189922,4.55852279 33.087,4.066 C31.5347224,3.4306376 29.8838163,3.06993544 28.208,3 C26.076,3 25.42,3 20.008,3 L20.09,3.123 Z" id="Shape" fill-rule="nonzero"></path>
                <path d="M19.967,12.717 C15.8009551,12.7170331 12.0459153,15.2288141 10.4554962,19.0793332 C8.86507717,22.9298522 9.75307225,27.3593932 12.7047849,30.299346 C15.6564975,33.2392988 20.089548,34.1096041 23.9336875,32.5038264 C27.7778269,30.8980488 30.2745978,27.1330118 30.258,22.967 C30.2580218,20.2414123 29.1724879,17.628052 27.2413633,15.7046212 C25.3102388,13.7811904 22.6925659,12.7060976 19.967,12.717 Z M19.967,29.65 C16.276081,29.65 13.284,26.657919 13.284,22.967 C13.284,19.276081 16.276081,16.284 19.967,16.284 C23.657919,16.284 26.65,19.276081 26.65,22.967 C26.65,24.7394418 25.9459002,26.439289 24.6925946,27.6925946 C23.439289,28.9459002 21.7394418,29.65 19.967,29.65 Z" id="Shape" fill-rule="nonzero"></path>
                <circle id="Oval" fill-rule="nonzero" cx="30.627" cy="12.307" r="2.378"></circle>
                <text id="/theshortcutorg" font-family="CircularStd-Medium, CircularStd" font-size="35" font-weight="500">
                    <tspan x="48" y="35">/theshortcutorg</tspan>
                </text>
            </g>
        </g>
    </g>
</svg>