<?xml version="1.0" encoding="UTF-8"?>
<svg width="312px" height="87px" viewBox="0 0 312 87" version="1.1" xmlns="http://www.w3.org/2000/svg" xmlns:xlink="http://www.w3.org/1999/xlink">
    <!-- Generator: Sketch 54.1 (76490) - https://sketchapp.com -->
    <title>logo</title>
    <desc>Created with Sketch.</desc>
    <g id="frontpage" stroke="none" stroke-width="1" fill="none" fill-rule="evenodd">
        <g id="Front-page_TT" transform="translate(-46.000000, -40.000000)" fill="#00A99D" fill-rule="nonzero">
            <g id="Corners" transform="translate(46.000000, 40.000000)">
                <g id="logo" transform="translate(0.000000, -0.000000)">
                    <path d="M148.494645,57.0408234 C146.034142,57.0408234 143.135669,57.8390193 141.405116,59.60813 L141.405116,46.089106 L132.91966,46.089106 L132.91966,86.1447901 L141.405116,86.1447901 L141.405116,69.4816121 C141.569149,66.8556147 143.301343,64.915462 145.981651,64.915462 C149.052359,64.915462 150.504056,67.0266566 150.504056,69.8236961 L150.504056,86.1447901 L158.989511,86.1447901 L158.989511,68.3396554 C158.989511,62.1133919 155.749849,57.0408234 148.494645,57.0408234 Z M141.347704,23.0772522 C141.511737,20.4512548 143.245572,18.5111021 145.92588,18.5111021 C148.996588,18.5111021 150.448285,20.6222968 150.448285,23.4193362 L150.448285,39.7404302 L158.9321,39.7404302 L158.9321,21.9352955 C158.9321,15.7157396 155.694077,10.6364635 148.433953,10.6364635 C145.97345,10.6364635 143.074977,11.4346594 141.344423,13.2037701 L141.344423,0 L132.86717,0 L132.86717,39.7421071 L141.347704,39.7421071 L141.347704,23.0772522 Z M123.151463,68.5106974 L119.46727,67.7695154 C118.238658,67.5397826 117.288904,66.8556147 117.288904,65.6566439 C117.288904,64.1742801 118.68483,63.2033653 120.303841,63.2033653 C122.872606,63.2033653 124.043805,64.801434 124.268531,66.6845727 L131.30229,65.371574 C131.021792,62.0614086 128.229941,56.9267954 120.192298,56.9267954 C113.996751,56.9267954 109.530118,61.1491847 109.530118,66.3424887 C109.530118,70.336822 111.874157,73.7610154 117.792487,75.0740141 L120.973097,75.815196 C123.03992,76.271308 123.709177,77.1281947 123.709177,78.1544466 C123.709177,79.4104314 122.64952,80.6094021 120.471155,80.6094021 C117.569401,80.6094021 116.229247,78.7262634 116.117705,76.7861108 L108.918272,78.0974326 C109.141358,81.236556 111.933209,87 120.640109,87 C128.065908,87 131.692689,82.2644848 131.692689,77.4132647 C131.691049,73.2478894 128.900839,69.7096681 123.151463,68.5106974 Z M1.3286717,7.9500983 L76.5118057,84.8016075 L82.9484819,78.2215219 L7.76534791,1.36330519 L1.3286717,7.9500983 Z M48.4194212,9.31172661 L75.1798533,9.31172661 L75.1798533,36.6599977 L84.2804343,36.6599977 L84.2804343,0 L48.4194212,0 L48.4194212,9.31172661 Z M115.781436,31.1229328 C115.781436,36.7723488 119.299955,40.2535561 125.049331,40.2535561 C127.727999,40.2535561 129.123924,39.6264022 129.458553,39.4553602 L129.458553,32.2648896 C128.726558,32.441583 127.978076,32.5371576 127.226056,32.5499595 C125.383959,32.5499595 124.155348,31.9211287 124.155348,29.5818781 L124.155348,18.9672141 L129.568455,18.9672141 L129.568455,11.3776454 L124.155348,11.3776454 L124.155348,3.10390887 L116.563876,3.10390887 L116.563876,6.75615821 C116.563876,9.38047878 115.16795,11.3776454 112.266197,11.3776454 L110.870272,11.3776454 L110.870272,18.9672141 L115.781436,18.9672141 L115.781436,31.1229328 Z M9.09730028,49.5032381 L2.84217094e-14,49.5032381 L2.84217094e-14,86.1632358 L35.8560921,86.1632358 L35.8560921,76.8598936 L9.09730028,76.8598936 L9.09730028,49.5032381 Z M290.839673,57.7820053 L282.354218,57.7820053 L282.354218,73.9320574 C282.354218,76.782757 280.567893,78.7832774 277.721911,78.7832774 C274.706974,78.7832774 273.255277,76.6133919 273.255277,73.8750434 L273.255277,57.7769747 L264.769822,57.7769747 L264.769822,75.6961374 C264.769822,81.7446513 268.565558,86.7635596 275.32046,86.7635596 C278.10903,86.7635596 281.294561,85.7356309 282.744618,83.2823523 C282.754556,84.2367089 282.829096,85.1892181 282.967703,86.1330519 L291.11853,86.1330519 C290.931042,84.4467695 290.837938,82.7509149 290.839673,81.0537759 L290.839673,57.7820053 Z M312,65.371574 L312,57.7820053 L306.586893,57.7820053 L306.586893,49.5082688 L298.995421,49.5082688 L298.995421,53.1605181 C298.995421,55.7848387 297.599495,57.7820053 294.697742,57.7820053 L293.291974,57.7820053 L293.291974,65.371574 L298.212981,65.371574 L298.212981,77.5272927 C298.212981,83.1767087 301.72986,86.657916 307.479236,86.657916 C310.157903,86.657916 311.553829,86.0307621 311.888457,85.8597201 L311.888457,78.6692495 C311.156483,78.8460584 310.407988,78.9416346 309.655961,78.9543194 C307.813864,78.9543194 306.585253,78.3254886 306.585253,75.986238 L306.585253,65.371574 L312,65.371574 Z M175.622513,40.5956401 C182.656271,40.5956401 187.067133,36.4872788 188.405647,31.5790448 L181.316117,29.5248641 C180.535317,31.7500867 178.804763,33.2341274 175.738976,33.2341274 C172.445183,33.2341274 169.599201,30.9518908 169.431887,27.7557534 L188.745196,27.7557534 C188.802608,27.5880652 188.90923,26.2717127 188.90923,25.072742 C188.90923,15.9421187 183.606025,10.5207586 175.009027,10.5207586 C167.807955,10.5207586 161.164596,16.3412166 161.164596,25.4718399 C161.164596,35.0032381 167.970348,40.5956401 175.622513,40.5956401 Z M175.12057,17.3691454 C179.139392,17.3691454 180.591089,19.9951428 180.69771,22.1633515 L169.59428,22.1633515 C169.761594,20.0521568 171.547919,17.3691454 175.12057,17.3691454 L175.12057,17.3691454 Z M248.91762,79.0113334 C245.400741,79.0113334 242.441576,76.4960102 242.441576,71.9919047 C242.441576,67.4257546 245.287558,64.915462 248.806078,64.915462 C252.098231,64.915462 253.774654,66.9696427 254.383218,69.1378513 L261.97469,66.7986007 C260.746079,61.7193246 256.281086,56.9267954 248.632202,56.9267954 C240.483016,56.9267954 234.006971,63.1463513 234.006971,71.9919047 C234.006971,80.7804441 240.65033,87 248.912699,87 C256.336858,87 260.915034,82.0917659 262.142005,77.1281947 L254.662075,74.7805597 C254.05187,76.9001388 252.209774,79.0113334 248.91762,79.0113334 Z M176.237638,56.9267954 C167.975269,56.9267954 161.500865,63.1463513 161.500865,71.9348907 C161.500865,80.7234301 167.975269,87 176.237638,87 C184.555779,87 190.974412,80.7234301 190.974412,71.9348907 C190.974412,63.1463513 184.555779,56.9267954 176.237638,56.9267954 Z M176.237638,79.0113334 C173.055388,79.0113334 169.98468,76.6636984 169.98468,71.9348907 C169.98468,67.1406846 173.055388,64.915462 176.237638,64.915462 C179.47566,64.915462 182.490597,67.1406846 182.490597,71.9348907 C182.490597,76.7290968 179.47566,79.0113334 176.237638,79.0113334 Z M201.580821,61.6103273 L201.580821,57.787036 L193.379144,57.787036 L193.379144,86.1447901 L201.864599,86.1447901 L201.864599,73.7610154 C201.864599,68.1115994 204.935307,66.0574188 208.339003,66.0574188 C209.240267,66.0450307 210.139843,66.1407072 211.019311,66.3424887 L211.019311,57.7820053 C210.291043,57.5849342 209.540125,57.4890487 208.786814,57.4969354 C206.549397,57.4969354 203.030877,58.4091592 201.580821,61.6103273 Z M226.694356,49.5082688 L219.102884,49.5082688 L219.102884,53.1605181 C219.102884,55.7848387 217.706958,57.7820053 214.803565,57.7820053 L213.407639,57.7820053 L213.407639,65.371574 L218.328645,65.371574 L218.328645,77.5272927 C218.328645,83.1767087 221.845525,86.657916 227.5949,86.657916 C230.275208,86.657916 231.671134,86.0307621 232.005762,85.8597201 L232.005762,78.6692495 C231.273199,78.8458702 230.524181,78.941443 229.771625,78.9543194 C227.929529,78.9543194 226.702558,78.3254886 226.702558,75.986238 L226.702558,65.371574 L232.115665,65.371574 L232.115665,57.7820053 L226.702558,57.7820053 L226.694356,49.5082688 Z" id="Shape"></path>
                </g>
            </g>
        </g>
    </g>
</svg>