<?xml version="1.0" encoding="UTF-8"?>
<svg width="317px" height="41px" viewBox="0 0 317 41" version="1.1" xmlns="http://www.w3.org/2000/svg" xmlns:xlink="http://www.w3.org/1999/xlink">
    <!-- Generator: Sketch 54.1 (76490) - https://sketchapp.com -->
    <title>Twitter</title>
    <desc>Created with Sketch.</desc>
    <g id="frontpage" stroke="none" stroke-width="1" fill="none" fill-rule="evenodd">
        <g id="Front-page_TT" transform="translate(-797.000000, -994.000000)" fill="#00A99D">
            <g id="Twitter" transform="translate(797.000000, 992.000000)">
                <path d="M50,6.78185278 C48.1264256,7.61478656 46.1397379,8.16742011 44.1042048,8.42187613 C46.2793383,7.14961784 47.9068069,5.12185346 48.6745887,2.72735058 C46.6610687,3.93966731 44.4485211,4.78789829 42.1389397,5.23294182 C39.2514832,2.16876061 34.7797071,1.17261837 30.8582911,2.72004083 C26.936875,4.26746329 24.3609372,8.04469032 24.3601463,12.2485973 C24.3610821,13.0310187 24.4531053,13.8106889 24.6343693,14.5719637 C16.3800691,14.1437947 8.69281477,10.2546601 3.47349177,3.86625569 C2.57336343,5.43344346 2.10064597,7.20826087 2.1023766,9.01410679 C2.07876225,12.4423755 3.79917225,15.6491499 6.67276051,17.533117 C5.06873372,17.4793149 3.50120626,17.041825 2.1023766,16.2575433 L2.1023766,16.2575433 C2.1122246,21.1205568 5.54885393,25.3073135 10.3290676,26.2799083 C9.4495601,26.515835 8.54332077,26.6383179 7.63254113,26.6443579 C6.99364374,26.6936724 6.35187728,26.6936724 5.71297989,26.6443579 C6.95907521,30.846919 10.7787576,33.7714005 15.1736746,33.8877944 C11.5861868,36.8107511 7.10142911,38.4187622 2.46800731,38.4434148 C1.64681688,38.512945 0.821190435,38.512945 0,38.4434148 C4.68910943,41.4440638 10.1499271,43.026383 15.7221207,42.9990353 C23.566924,43.0629001 31.1024577,39.9534373 36.6065214,34.3812958 C42.110585,28.8091543 45.1127443,21.250587 44.9268739,13.4330586 C44.9268739,12.9774966 44.9268739,12.5219345 44.9268739,12.0663725 C46.9273891,10.6283389 48.6467911,8.83729069 50,6.78185278 Z" id="Path" fill-rule="nonzero"></path>
                <text id="@theshortcutorg" font-family="CircularStd-Medium, CircularStd" font-size="35" font-weight="500">
                    <tspan x="50" y="35">@theshortcutorg</tspan>
                </text>
            </g>
        </g>
    </g>
</svg>